<svg width="24" height="24" viewBox="0 0 24 24" fill="none" xmlns="http://www.w3.org/2000/svg">
<path d="M11.5 17.5H11.73L14.673 12.308H12.5V8.50001H12.27L9.327 13.692H11.5V17.5ZM11.997 21C9.99767 21 8.33167 20.312 6.999 18.936C5.66633 17.56 5 15.848 5 13.8C5 12.364 5.57933 10.7757 6.738 9.03501C7.89667 7.29435 9.65067 5.38535 12 3.30801C14.35 5.38601 16.104 7.29535 17.262 9.03601C18.4207 10.776 19 12.364 19 13.8C19 15.8487 18.3327 17.561 16.998 18.937C15.662 20.3123 13.9957 21 11.997 21ZM12 20C13.7333 20 15.1667 19.4123 16.3 18.237C17.4333 17.0617 18 15.5827 18 13.8C18 12.5833 17.4957 11.2083 16.487 9.67501C15.4783 8.14168 13.9827 6.46668 12 4.65001C10.0167 6.46668 8.521 8.14168 7.513 9.67501C6.505 11.2083 6.00067 12.5833 6 13.8C6 15.5833 6.56667 17.0627 7.7 18.238C8.83333 19.4133 10.2667 20.0007 12 20Z" fill="black"/>
</svg>
