<svg width="24" height="24" viewBox="0 0 24 24" fill="none" xmlns="http://www.w3.org/2000/svg">
<path d="M11.5 19.27C11.044 19.27 10.625 19.1557 10.243 18.927C9.86167 18.699 9.555 18.3837 9.323 17.981C9.22967 17.827 9.232 17.6697 9.33 17.509C9.428 17.3483 9.57067 17.2683 9.758 17.269C9.85933 17.269 9.95167 17.2973 10.035 17.354C10.1183 17.41 10.1883 17.483 10.245 17.573C10.379 17.7797 10.5587 17.9473 10.784 18.076C11.0093 18.2047 11.248 18.269 11.5 18.269C11.9113 18.269 12.2643 18.122 12.559 17.828C12.8537 17.534 13.0007 17.181 13 16.769C12.9993 16.357 12.8523 16.0043 12.559 15.711C12.2643 15.4163 11.9113 15.269 11.5 15.269H3C2.858 15.269 2.739 15.2213 2.643 15.126C2.547 15.0307 2.49933 14.9117 2.5 14.769C2.50067 14.6263 2.54833 14.5073 2.643 14.412C2.73767 14.3167 2.85667 14.2693 3 14.27H11.5C12.1927 14.27 12.7827 14.5137 13.27 15.001C13.7573 15.4883 14.0007 16.0783 14 16.771C13.9993 17.4637 13.756 18.0533 13.27 18.54C12.784 19.0267 12.194 19.27 11.5 19.27ZM3 9.73099C2.858 9.73099 2.739 9.68332 2.643 9.58799C2.547 9.49265 2.49933 9.37332 2.5 9.22999C2.50067 9.08665 2.54833 8.96765 2.643 8.87299C2.73767 8.77832 2.85667 8.73099 3 8.73099H15.5C16.0447 8.73099 16.5143 8.53399 16.909 8.13999C17.303 7.74532 17.5 7.27532 17.5 6.72999C17.5 6.18465 17.303 5.71532 16.909 5.32199C16.5143 4.92799 16.0447 4.73099 15.5 4.73099C15.1053 4.73099 14.7433 4.83499 14.414 5.04299C14.0847 5.25099 13.8403 5.53599 13.681 5.89799C13.6283 5.99532 13.5637 6.07532 13.487 6.13799C13.4097 6.19999 13.3187 6.23099 13.214 6.23099C13.034 6.23099 12.888 6.16365 12.776 6.02899C12.664 5.89432 12.6387 5.74299 12.7 5.57499C12.9333 5.00299 13.303 4.55265 13.809 4.22399C14.3143 3.89532 14.878 3.73099 15.5 3.73099C16.3387 3.73099 17.0483 4.02132 17.629 4.60199C18.2097 5.18265 18.5 5.89232 18.5 6.73099C18.5 7.56965 18.2097 8.27932 17.629 8.85999C17.0483 9.43999 16.3387 9.72999 15.5 9.72999L3 9.73099ZM19.72 17.277C19.54 17.3503 19.375 17.3327 19.225 17.224C19.075 17.1153 19 16.9677 19 16.781C19 16.6757 19.031 16.5857 19.093 16.511C19.155 16.4363 19.235 16.3723 19.333 16.319C19.6943 16.1603 19.9793 15.9163 20.188 15.587C20.3967 15.2577 20.5007 14.8953 20.5 14.5C20.5 13.9553 20.303 13.4857 19.909 13.091C19.5143 12.697 19.0447 12.5 18.5 12.5H3C2.858 12.5 2.739 12.4523 2.643 12.357C2.547 12.2617 2.49933 12.1427 2.5 12C2.50067 11.8573 2.54833 11.7383 2.643 11.643C2.73767 11.5477 2.85667 11.5 3 11.5H18.5C19.3387 11.5 20.0483 11.7903 20.629 12.371C21.2097 12.9517 21.5 13.6613 21.5 14.5C21.5 15.1107 21.3423 15.665 21.027 16.163C20.7117 16.661 20.2767 17.0323 19.72 17.277Z" fill="black"/>
</svg>
